HIERARCHY
ROOT Hips
{
	OFFSET 0.000000 0.000000 0.000000
	CHANNELS 6 Xposition Yposition Zposition Zrotation Yrotation Xrotation 
	JOINT LeftUpLeg_virtual
	{
		OFFSET 0.000000 0.000000 0.000000
		CHANNELS 3 Zrotation Yrotation Xrotation
		JOINT LeftUpLeg
		{
			OFFSET 8.479694 -4.795517 -0.379053
			CHANNELS 3 Zrotation Yrotation Xrotation
			JOINT LeftLeg
			{
				OFFSET 0.485052 -32.551468 0.112863
				CHANNELS 3 Zrotation Yrotation Xrotation
				JOINT LeftFoot
				{
					OFFSET 0.438033 -32.635670 -3.012641
					CHANNELS 3 Zrotation Yrotation Xrotation
					JOINT LeftToeBase
					{
						OFFSET 0.970169 -13.225353 11.864223
						CHANNELS 3 Zrotation Yrotation Xrotation
						End Site
						{
							OFFSET 0.000000 0.000000 0.000000
						}
					}
				}
			}
		}
	}
	JOINT RightUpLeg_virtual
	{
		OFFSET 0.000000 0.000000 0.000000
		CHANNELS 3 Zrotation Yrotation Xrotation
		JOINT RightUpLeg
		{
			OFFSET -8.479694 -4.795517 -0.379053
			CHANNELS 3 Zrotation Yrotation Xrotation
			JOINT RightLeg
			{
				OFFSET -0.484100 -32.551483 0.112903
				CHANNELS 3 Zrotation Yrotation Xrotation
				JOINT RightFoot
				{
					OFFSET -0.438985 -32.635651 -3.012681
					CHANNELS 3 Zrotation Yrotation Xrotation
					JOINT RightToeBase
					{
						OFFSET -0.970169 -13.225354 11.864223
						CHANNELS 3 Zrotation Yrotation Xrotation
						End Site
						{
							OFFSET 0.000000 0.000000 0.000000
						}
					}
				}
			}
		}
	}
	JOINT Spine_virtual
	{
		OFFSET 0.000000 0.000000 0.000000
		CHANNELS 3 Zrotation Yrotation Xrotation
		JOINT Spine
		{
			OFFSET 0.000000 7.722015 1.166203
			CHANNELS 3 Zrotation Yrotation Xrotation
			JOINT Spine1
			{
				OFFSET 0.000000 12.024086 0.248766
				CHANNELS 3 Zrotation Yrotation Xrotation
				JOINT Spine2
				{
					OFFSET -0.000000 11.503036 -0.491240
					CHANNELS 3 Zrotation Yrotation Xrotation
					JOINT Neck_virtual
					{
						OFFSET 0.000000 0.000000 0.000000
						CHANNELS 3 Zrotation Yrotation Xrotation
						JOINT Neck
						{
							OFFSET 0.000000 18.430687 -3.123054
							CHANNELS 3 Zrotation Yrotation Xrotation
							JOINT Head
							{
								OFFSET -0.000000 9.051071 1.034021
								CHANNELS 3 Zrotation Yrotation Xrotation
								End Site
								{
									OFFSET 0.000000 0.000000 0.000000
								}
							}
						}
					}
					JOINT LeftShoulder_virtual
					{
						OFFSET 0.000000 0.000000 0.000000
						CHANNELS 3 Zrotation Yrotation Xrotation
						JOINT LeftShoulder
						{
							OFFSET 6.197824 13.665230 -4.064723
							CHANNELS 3 Zrotation Yrotation Xrotation
							JOINT LeftArm
							{
								OFFSET 7.778132 -0.187073 -1.709282
								CHANNELS 3 Zrotation Yrotation Xrotation
								JOINT LeftForeArm
								{
									OFFSET 21.954697 0.000000 -2.041093
									CHANNELS 3 Zrotation Yrotation Xrotation
									JOINT LeftHand
									{
										OFFSET 22.992908 0.000000 -0.870901
										CHANNELS 3 Zrotation Yrotation Xrotation
										End Site
										{
											OFFSET 0.000000 0.000000 0.000000
										}
									}
								}
							}
						}
					}
					JOINT RightShoulder_virtual
					{
						OFFSET 0.000000 0.000000 0.000000
						CHANNELS 3 Zrotation Yrotation Xrotation
						JOINT RightShoulder
						{
							OFFSET -6.197824 13.665230 -4.064723
							CHANNELS 3 Zrotation Yrotation Xrotation
							JOINT RightArm
							{
								OFFSET -7.778132 -0.187073 -1.709282
								CHANNELS 3 Zrotation Yrotation Xrotation
								JOINT RightForeArm
								{
									OFFSET -21.954697 0.000000 -2.041093
									CHANNELS 3 Zrotation Yrotation Xrotation
									JOINT RightHand
									{
										OFFSET -22.992908 0.000000 -0.870901
										CHANNELS 3 Zrotation Yrotation Xrotation
										End Site
										{
											OFFSET 0.000000 0.000000 0.000000
										}
									}
								}
							}
						}
					}
				}
			}
		}
	}
}
MOTION
Frames: 7
Frame Time: 0.033333
24.292912 80.216156 109.084778 -179.670558 57.849831 -179.621353 -5.254328 1.911196 12.434206 0.551923 -9.907130 -22.298756 7.713374 0.423976 34.820509 -0.894903 -9.297726 -18.365515 0.000000 0.000000 0.000000 0.119659 1.979432 10.950117 -2.497178 -1.531263 -43.272056 -1.507556 3.816605 33.270128 9.209679 12.754271 0.087140 0.000000 0.000000 0.000000 0.572704 3.681086 3.336443 2.534211 0.263017 -1.916431 -0.854064 -2.929806 7.025276 -0.115687 0.003338 0.046186 -1.116223 -1.715861 9.337994 -7.204963 6.109720 -5.517937 0.000000 0.000000 0.000000 0.058341 -1.238497 6.058999 6.790061 -1.648984 2.040924 -48.510995 -10.805845 43.774174 -153.515974 -85.986481 -177.033189 0.000000 0.000000 0.000000 -3.548735 0.362018 5.974977 30.392658 0.397952 1.836931 47.614031 -16.364544 9.487167 0.803294 26.394593 -0.870831 0.000000 0.000000 0.000000 
26.319407 80.020119 108.452545 -179.763612 56.333006 -179.735376 -5.050965 1.637031 12.652383 0.695508 -10.446097 -21.032260 7.707739 -0.072728 35.250733 -0.837591 -9.515458 -19.198367 0.000000 0.000000 0.000000 0.152023 2.015922 10.773776 -2.300339 0.215685 -45.155169 -1.855255 3.600784 28.676962 9.872179 11.984820 1.441465 0.000000 0.000000 0.000000 1.165415 3.659676 3.693397 2.682091 0.298978 -1.493461 -1.009743 -2.919951 6.920948 -0.036980 0.015524 0.042286 -1.290277 -1.639597 9.225348 -7.117920 5.690312 -5.825969 0.000000 0.000000 0.000000 -0.112846 -1.258417 5.949053 6.448855 -1.564834 2.289980 -48.245311 -10.732853 43.768375 -153.832239 -86.255140 -176.747674 0.000000 0.000000 0.000000 -3.748258 0.342680 5.889710 30.070161 0.417133 1.590487 48.197500 -17.368100 10.009456 0.755220 25.914858 -1.034584 0.000000 0.000000 0.000000 
28.510876 79.727600 107.750084 -179.730909 54.654887 -179.726483 -4.824081 1.138702 12.914070 0.892976 -10.636753 -19.885370 7.676504 -0.483993 36.069403 -0.864622 -9.866096 -19.991643 0.000000 0.000000 0.000000 0.303130 2.063407 10.556861 -2.325752 1.588370 -46.677748 -2.061261 3.359315 25.685227 10.075841 11.277153 2.020869 0.000000 0.000000 0.000000 1.797182 3.499232 3.894831 2.782349 0.398208 -1.098265 -1.115816 -2.898725 6.856013 -0.022618 0.037564 -0.051967 -1.438583 -1.639632 9.280816 -7.108235 5.396961 -6.287067 0.000000 0.000000 0.000000 -0.257131 -1.308008 5.968448 6.113047 -1.491108 2.406707 -48.019792 -10.545320 43.610201 -151.764713 -86.438769 -178.722664 0.000000 0.000000 0.000000 -3.940234 0.375514 5.909624 30.085276 0.419972 1.386315 48.502406 -17.779875 10.614689 0.700378 25.478267 -1.102609 0.000000 0.000000 0.000000 
30.840893 79.397232 106.975578 -179.718738 52.780922 -179.585003 -4.271073 0.817757 13.156420 1.051968 -10.858969 -19.003413 7.520272 -0.950333 37.001518 -1.133135 -10.384446 -20.536670 0.000000 0.000000 0.000000 0.470265 1.999128 10.347340 -2.584789 2.729301 -47.467001 -2.238743 3.253635 24.346969 9.889482 10.642511 1.928776 0.000000 0.000000 0.000000 2.391527 3.435080 3.775612 2.785185 0.450957 -0.829777 -1.194189 -2.894976 6.812602 0.008840 0.056479 0.025484 -1.528463 -1.702706 9.315608 -7.014691 5.266575 -6.672416 0.000000 0.000000 0.000000 -0.337803 -1.276442 6.002401 5.837290 -1.519745 2.573555 -47.742503 -10.288066 43.276946 -148.434545 -86.626060 178.131211 0.000000 0.000000 0.000000 -4.039200 0.310382 5.937060 30.450892 0.617581 1.210145 48.466708 -17.512096 11.296493 0.762316 25.214974 -0.982717 0.000000 0.000000 0.000000 
33.314053 79.138840 106.096451 -179.676268 50.368240 -179.179358 -3.804942 0.768747 12.790416 1.202043 -10.634476 -18.744122 7.419959 -1.122515 38.936911 -1.464383 -10.356423 -18.990641 0.000000 0.000000 0.000000 0.858425 1.825872 10.136434 -3.127972 3.307658 -47.299746 -2.179395 4.095793 24.266494 9.588240 10.312405 2.699130 0.000000 0.000000 0.000000 2.928908 3.058039 3.223180 2.748887 0.511544 -0.750355 -1.245677 -2.931793 6.835611 0.003754 0.001362 0.128143 -1.664903 -1.818914 9.444875 -6.991261 4.806015 -7.217136 0.000000 0.000000 0.000000 -0.433022 -1.197155 6.047318 5.426193 -1.505885 2.850471 -47.363189 -10.136331 42.960766 -147.181738 -86.777970 177.114100 0.000000 0.000000 0.000000 -4.136328 0.361797 6.001455 31.032568 0.729124 1.028294 48.159305 -16.698325 11.913404 0.793039 25.047169 -0.872202 0.000000 0.000000 0.000000 
35.885807 79.003479 105.179802 -179.882471 47.914877 -179.601436 -3.548827 0.857262 12.387497 1.458198 -10.170802 -18.251987 7.374363 -1.143567 40.826503 -2.140106 -10.122300 -15.362007 0.000000 0.000000 0.000000 1.250217 1.854428 10.275462 -3.914545 3.782381 -45.858440 -2.217813 5.483891 25.780827 9.458119 10.833839 3.523109 0.000000 0.000000 0.000000 3.352670 2.774143 2.976576 2.597570 0.593783 -0.407904 -1.308283 -2.943968 6.919867 0.067093 -0.053369 0.131623 -1.766638 -1.722452 9.582399 -6.802955 4.444817 -7.428574 0.000000 0.000000 0.000000 -0.501619 -1.283819 6.251270 5.026396 -1.633694 3.022387 -46.898613 -9.901780 42.564062 -143.757969 -86.834606 173.940903 0.000000 0.000000 0.000000 -4.218547 0.220190 6.127853 31.995943 0.920436 0.882660 47.248667 -15.158708 12.280722 0.886341 25.088332 -0.667055 0.000000 0.000000 0.000000 
38.470543 79.012199 104.278824 -179.754460 45.523067 -179.655668 -3.198029 0.647419 11.815861 1.785903 -8.888672 -18.082509 7.519477 -0.833750 42.799844 -2.576355 -9.168609 -10.017539 0.000000 0.000000 0.000000 1.333316 1.757951 10.336615 -4.209061 4.703892 -43.994112 -2.107383 6.850054 28.106616 9.676493 11.270730 3.052573 0.000000 0.000000 0.000000 3.840842 2.482911 2.605837 2.467599 0.718792 -0.120632 -1.295057 -2.930037 7.082404 0.001943 -0.083927 0.002513 -1.795049 -1.732837 9.891138 -6.568824 4.040443 -7.757870 0.000000 0.000000 0.000000 -0.528812 -1.273658 6.470565 4.787561 -1.832808 3.192233 -46.512553 -9.801787 42.138637 -139.352552 -86.858758 169.782411 0.000000 0.000000 0.000000 -4.239615 0.296571 6.394663 33.085911 1.090969 0.800892 46.152514 -12.933055 12.119610 0.988249 25.196435 -0.575656 0.000000 0.000000 0.000000 
